<svg xmlns="http://www.w3.org/2000/svg" viewBox="0 0 64 64" fill="none">
  <g stroke="#1971c2" stroke-width="3" stroke-linecap="round">
    <line x1="32" y1="4"  x2="32" y2="14"/>
    <line x1="32" y1="50" x2="32" y2="60"/>
    <line x1="4"  y1="32" x2="14" y2="32"/>
    <line x1="50" y1="32" x2="60" y2="32"/>
    <line x1="12" y1="12" x2="19" y2="19"/>
    <line x1="45" y1="45" x2="52" y2="52"/>
    <line x1="52" y1="12" x2="45" y2="19"/>
    <line x1="19" y1="45" x2="12" y2="52"/>
  </g>
  <g fill="#1971c2">
    <circle cx="32" cy="4"  r="3"/>
    <circle cx="32" cy="60" r="3"/>
    <circle cx="4"  cy="32" r="3"/>
    <circle cx="60" cy="32" r="3"/>
    <circle cx="12" cy="12" r="3"/>
    <circle cx="52" cy="52" r="3"/>
    <circle cx="52" cy="12" r="3"/>
    <circle cx="12" cy="52" r="3"/>
  </g>
  <circle cx="32" cy="32" r="16" fill="#4dabf7" stroke="#1864ab" stroke-width="2"/>
  <circle cx="26" cy="28" r="3" fill="#fff" fill-opacity="0.85"/>
  <circle cx="37" cy="34" r="2.5" fill="#fff" fill-opacity="0.85"/>
  <circle cx="30" cy="38" r="2" fill="#fff" fill-opacity="0.85"/>
</svg>
